<?xml version="1.0" standalone="no"?>
<!DOCTYPE svg PUBLIC "-//W3C//DTD SVG 20010904//EN"
 "http://www.w3.org/TR/2001/REC-SVG-20010904/DTD/svg10.dtd">
<svg version="1.0" xmlns="http://www.w3.org/2000/svg"
 width="180.000000pt" height="180.000000pt" viewBox="0 0 180.000000 180.000000"
 preserveAspectRatio="xMidYMid meet">
<metadata>
Created by potrace 1.11, written by Peter Selinger 2001-2013
</metadata>
<g transform="translate(0.000000,180.000000) scale(0.100000,-0.100000)"
fill="#000000" stroke="none">
<path d="M832 1654 c-18 -12 -22 -25 -22 -67 l0 -52 -103 -32 c-56 -18 -128
-48 -159 -66 l-56 -34 -40 40 c-34 34 -44 39 -68 33 -35 -9 -94 -71 -94 -99 0
-13 17 -36 41 -57 l42 -36 -38 -58 c-47 -74 -72 -129 -85 -194 -11 -48 -28
-66 -56 -61 -5 1 -23 1 -41 0 -25 -1 -33 -7 -42 -32 -15 -44 -14 -75 4 -110
15 -28 18 -29 69 -25 l54 5 10 -52 c12 -60 63 -177 98 -223 l23 -31 -40 -39
c-21 -21 -39 -46 -39 -55 0 -28 47 -77 87 -89 34 -12 37 -11 75 27 l40 40 56
-33 c61 -37 141 -70 215 -87 41 -10 47 -15 47 -38 0 -64 11 -88 47 -100 39
-13 96 -5 113 16 6 8 11 33 10 57 -3 66 -2 68 26 68 54 0 198 59 276 113 15
10 24 6 57 -27 35 -35 43 -38 75 -32 37 7 86 57 86 88 0 8 -18 31 -40 51 l-40
36 40 59 c41 60 89 178 90 220 0 18 6 22 33 23 90 2 107 16 107 88 -1 66 -20
86 -82 86 -51 0 -52 1 -60 35 -26 108 -58 182 -102 235 l-25 30 46 46 c41 43
44 49 33 70 -21 41 -61 78 -92 84 -25 6 -35 1 -70 -33 l-40 -40 -57 38 c-31
21 -69 42 -85 46 -16 4 -41 13 -55 20 -14 8 -47 17 -73 20 l-48 7 0 57 c0 51
-3 58 -25 68 -36 17 -97 15 -123 -4z m78 -84 c0 -5 -7 -10 -16 -10 -8 0 -12 5
-9 10 3 6 10 10 16 10 5 0 9 -4 9 -10z m20 -84 c0 -31 -23 -51 -38 -33 -16 19
-3 57 19 57 13 0 19 -7 19 -24z m40 -6 c0 -5 -2 -10 -4 -10 -3 0 -8 5 -11 10
-3 6 -1 10 4 10 6 0 11 -4 11 -10z m80 -14 c0 -3 -4 -8 -10 -11 -5 -3 -10 -1
-10 4 0 6 5 11 10 11 6 0 10 -2 10 -4z m104 -46 c7 -7 -23 -7 -31 0 -2 2 -7 3
-12 4 -5 0 -13 5 -18 10 -10 11 49 -2 61 -14z m-340 -52 c10 -50 7 -198 -4
-198 -5 0 -10 -7 -10 -15 0 -9 -7 -18 -15 -21 -19 -8 -110 68 -112 93 -1 18
-19 74 -34 104 -13 27 4 32 23 7 14 -19 20 -21 35 -12 10 7 17 21 16 32 -3 24
13 39 47 44 37 6 47 0 54 -34z m-419 12 c3 -5 1 -10 -4 -10 -6 0 -11 5 -11 10
0 6 2 10 4 10 3 0 8 -4 11 -10z m519 -21 c7 -35 1 -49 -20 -49 -15 0 -19 25
-5 34 5 3 7 15 4 26 -3 11 -1 20 5 20 5 0 12 -14 16 -31z m151 -39 c0 -73 -1
-76 -25 -60 -10 6 -11 10 -3 10 9 0 11 13 7 44 -7 45 -1 76 13 76 4 0 8 -31 8
-70z m215 45 c15 -16 19 -25 10 -25 -15 0 -50 29 -50 42 0 15 16 8 40 -17z
m106 -12 c-10 -10 -19 5 -10 18 6 11 8 11 12 0 2 -7 1 -15 -2 -18z m-951 -12
c-6 -5 -25 10 -25 20 0 5 6 4 14 -3 8 -7 12 -15 11 -17z m90 9 c3 -5 1 -10 -4
-10 -6 0 -11 5 -11 10 0 6 2 10 4 10 3 0 8 -4 11 -10z m-25 -40 c11 -11 25
-20 30 -20 13 0 13 -27 0 -35 -16 -10 -104 51 -94 66 9 16 43 10 64 -11z m840
1 c0 -6 -4 -13 -10 -16 -5 -3 -10 1 -10 9 0 9 5 16 10 16 6 0 10 -4 10 -9z
m-427 -45 c4 -10 1 -13 -9 -9 -7 3 -14 9 -14 14 0 14 17 10 23 -5z m-326 -53
c12 -25 10 -43 -6 -43 -14 0 -43 51 -37 66 7 19 29 8 43 -23z m803 11 c0 -8
-4 -12 -10 -9 -5 3 -10 13 -10 21 0 8 5 12 10 9 6 -3 10 -13 10 -21z m-325
-24 c0 -22 -4 -42 -10 -44 -6 -2 -9 14 -6 40 4 55 16 58 16 4z m185 30 c0 -5
-4 -10 -10 -10 -5 0 -10 5 -10 10 0 6 5 10 10 10 6 0 10 -4 10 -10z m-350 -27
c0 -29 -12 -24 -17 7 -2 11 2 20 7 20 6 0 10 -12 10 -27z m314 -8 c-10 -8 -23
-15 -28 -15 -6 0 -1 7 10 15 10 8 23 15 28 15 6 0 1 -7 -10 -15z m-734 -40 c7
-8 16 -12 21 -9 5 3 9 0 9 -5 0 -6 8 -11 18 -11 14 0 15 -2 2 -10 -12 -8 -11
-10 7 -10 21 0 43 -19 26 -21 -4 -1 -17 -3 -28 -4 -11 -2 -29 -6 -40 -11 -18
-7 -19 -6 -6 9 12 15 12 17 -3 11 -18 -7 -18 -7 -10 -29 6 -14 9 -14 33 1 l26
17 -21 -24 c-12 -13 -25 -39 -29 -56 -4 -20 -13 -33 -22 -33 -9 0 -13 6 -9 15
3 8 1 15 -4 15 -6 0 -5 9 2 20 11 16 9 22 -9 40 -29 26 -30 26 -53 -12 -28
-46 -25 -27 6 40 41 87 57 100 84 67z m682 -37 c-20 -20 -36 5 -20 31 l13 21
9 -20 c6 -14 5 -25 -2 -32z m272 26 c9 -22 -3 -32 -14 -14 -12 19 -12 30 -1
30 5 0 12 -7 15 -16z m-774 -4 c0 -5 -4 -10 -10 -10 -5 0 -10 5 -10 10 0 6 5
10 10 10 6 0 10 -4 10 -10z m800 -50 c0 -5 -5 -10 -11 -10 -5 0 -7 5 -4 10 3
6 8 10 11 10 2 0 4 -4 4 -10z m-625 -10 c-4 -6 -10 -8 -15 -5 -5 3 -11 1 -15
-5 -4 -6 -11 -7 -17 -4 -6 4 -5 10 3 15 19 12 52 11 44 -1z m255 -10 c0 -11
-7 -20 -15 -20 -8 0 -15 -7 -15 -16 0 -14 -2 -15 -17 -3 -15 13 -15 14 0 17
10 2 17 12 17 23 0 10 7 19 15 19 8 0 15 -9 15 -20z m107 -18 c15 -10 35 -62
23 -62 -5 0 -12 9 -15 20 -6 20 -16 24 -44 20 -13 -1 -13 1 -2 14 15 18 21 19
38 8z m-305 -22 c15 -24 31 -25 48 -5 18 21 25 19 65 -20 38 -39 42 -58 20
-101 -13 -25 -13 -31 1 -52 14 -21 14 -26 0 -47 -40 -60 -138 -85 -205 -51
-54 29 -96 106 -56 106 24 0 19 47 -5 55 -16 5 -19 12 -14 28 9 28 21 36 46
29 17 -4 19 0 16 24 -2 22 3 31 22 41 35 18 48 16 62 -7z m458 10 c0 -5 -8
-10 -17 -10 -15 0 -16 2 -3 10 19 12 20 12 20 0z m-940 -55 c0 -8 -4 -15 -10
-15 -5 0 -7 7 -4 15 4 8 8 15 10 15 2 0 4 -7 4 -15z m710 -15 c0 -5 -4 -10
-10 -10 -5 0 -10 5 -10 10 0 6 5 10 10 10 6 0 10 -4 10 -10z m-820 -26 c0 -8
-5 -12 -10 -9 -6 4 -8 11 -5 16 9 14 15 11 15 -7z m1210 0 c0 -8 -4 -12 -10
-9 -5 3 -10 10 -10 16 0 5 5 9 10 9 6 0 10 -7 10 -16z m-394 -31 c-11 -11 -19
6 -11 24 8 17 8 17 12 0 3 -10 2 -21 -1 -24z m209 -3 c-3 -5 -12 -7 -20 -3
-21 7 -19 13 6 13 11 0 18 -4 14 -10z m-135 -14 c0 -24 -22 -30 -36 -11 -11
15 -16 16 -29 5 -8 -7 -19 -10 -22 -6 -12 11 19 26 55 26 21 0 32 -5 32 -14z
m220 10 c0 -3 -4 -8 -10 -11 -5 -3 -10 -1 -10 4 0 6 5 11 10 11 6 0 10 -2 10
-4z m180 -4 c0 -4 -20 -8 -45 -8 -24 -1 -42 3 -39 7 7 11 84 12 84 1z m-1306
-11 c3 -5 -3 -11 -13 -14 -14 -3 -18 -1 -14 9 6 16 19 18 27 5z m254 2 c-10
-2 -26 -2 -35 0 -10 3 -2 5 17 5 19 0 27 -2 18 -5z m68 -8 c5 -13 8 -13 21 0
8 9 19 12 25 9 6 -4 -7 -15 -28 -25 -49 -23 -54 -23 -54 -1 0 32 26 44 36 17z
m614 5 c0 -5 -4 -10 -10 -10 -5 0 -10 5 -10 10 0 6 5 10 10 10 6 0 10 -4 10
-10z m249 -4 c9 -11 8 -15 -5 -20 -26 -10 -34 -7 -34 14 0 23 22 27 39 6z
m-1049 -8 c0 -4 -9 -8 -21 -8 -11 0 -18 4 -15 8 3 5 12 9 21 9 8 0 15 -4 15
-9z m280 -14 c0 -8 -4 -12 -10 -9 -5 3 -10 13 -10 21 0 8 5 12 10 9 6 -3 10
-13 10 -21z m815 6 c3 -5 -1 -10 -10 -10 -9 0 -13 5 -10 10 3 6 8 10 10 10 2
0 7 -4 10 -10z m5 -44 c0 -8 -4 -18 -10 -21 -5 -3 -10 3 -10 14 0 12 5 21 10
21 6 0 10 -6 10 -14z m-1000 -23 c1 -10 18 -36 40 -58 l40 -39 -48 -43 c-51
-47 -87 -61 -110 -46 -30 19 -25 33 12 33 53 0 71 45 42 103 -8 15 -11 27 -6
27 4 0 6 9 3 20 -4 14 0 20 11 20 9 0 16 -8 16 -17z m769 -27 c-2 -2 -13 8
-23 22 l-19 27 24 -22 c12 -12 21 -24 18 -27z m-989 24 c0 -5 -2 -10 -4 -10
-3 0 -8 5 -11 10 -3 6 -1 10 4 10 6 0 11 -4 11 -10z m425 -30 c-6 -9 -9 -9
-16 1 -10 17 0 34 13 21 6 -6 7 -16 3 -22z m695 10 c-14 -25 -51 -51 -63 -43
-6 3 -7 1 -4 -4 4 -6 -2 -13 -13 -16 -15 -4 -20 -14 -22 -44 l-1 -38 -4 36 -4
36 -59 1 c-51 1 -64 5 -87 28 -22 21 -24 25 -8 19 11 -3 43 -12 71 -18 45 -9
55 -8 107 16 31 14 57 30 57 34 0 5 9 9 20 10 17 2 18 -1 10 -17z m-1095 -57
c9 -20 14 -41 12 -47 -4 -12 -37 51 -37 71 0 23 9 14 25 -24z m300 19 c-3 -3
-11 0 -18 7 -9 10 -8 11 6 5 10 -3 15 -9 12 -12z m445 -2 c0 -5 -4 -10 -9 -10
-6 0 -13 5 -16 10 -3 6 1 10 9 10 9 0 16 -4 16 -10z m-350 -20 c0 -5 -4 -10
-10 -10 -5 0 -10 5 -10 10 0 6 5 10 10 10 6 0 10 -4 10 -10z m185 -10 c-3 -5
-11 -10 -16 -10 -6 0 -7 5 -4 10 3 6 11 10 16 10 6 0 7 -4 4 -10z m195 0 c0
-5 -4 -10 -10 -10 -5 0 -10 5 -10 10 0 6 5 10 10 10 6 0 10 -4 10 -10z m297 4
c-3 -3 -12 -4 -19 -1 -8 3 -5 6 6 6 11 1 17 -2 13 -5z m-682 -44 c3 -5 1 -10
-4 -10 -6 0 -11 5 -11 10 0 6 2 10 4 10 3 0 8 -4 11 -10z m425 0 c0 -5 -7 -10
-16 -10 -8 0 -12 5 -9 10 3 6 10 10 16 10 5 0 9 -4 9 -10z m-337 -17 c11 -4
17 -15 17 -35 0 -26 -2 -29 -15 -18 -10 9 -15 9 -15 1 0 -6 -16 -11 -35 -11
-37 0 -41 -8 -24 -43 10 -22 10 -22 -6 -2 -33 40 -36 53 -17 67 11 7 24 23 31
36 9 16 18 21 29 17 9 -4 25 -10 35 -12z m667 7 c0 -5 -4 -10 -10 -10 -5 0
-10 5 -10 10 0 6 5 10 10 10 6 0 10 -4 10 -10z m-793 -6 c-3 -3 -12 -4 -19 -1
-8 3 -5 6 6 6 11 1 17 -2 13 -5z m248 -5 c11 -16 -4 -59 -20 -59 -19 0 -29 38
-15 55 15 18 26 19 35 4z m265 -41 c0 -4 7 -8 15 -8 8 0 15 -4 15 -10 0 -14
-4 -13 -45 11 -29 18 -33 24 -23 36 10 13 14 13 25 -3 7 -10 13 -21 13 -26z
m-548 10 c-7 -7 -12 -8 -12 -2 0 14 12 26 19 19 2 -3 -1 -11 -7 -17z m389
-112 l32 -41 -30 28 c-17 16 -35 28 -40 27 -9 -3 -22 59 -22 100 1 16 6 7 14
-24 8 -26 28 -67 46 -90z m303 108 c3 -8 2 -12 -4 -9 -6 3 -10 10 -10 16 0 14
7 11 14 -7z m-954 -4 c0 -5 -4 -10 -10 -10 -5 0 -10 5 -10 10 0 6 5 10 10 10
6 0 10 -4 10 -10z m200 -19 c0 -6 -4 -13 -10 -16 -5 -3 -10 1 -10 9 0 9 5 16
10 16 6 0 10 -4 10 -9z m850 -11 c0 -5 -4 -10 -10 -10 -5 0 -10 5 -10 10 0 6
5 10 10 10 6 0 10 -4 10 -10z m-880 -30 c0 -5 -4 -10 -10 -10 -5 0 -10 5 -10
10 0 6 5 10 10 10 6 0 10 -4 10 -10z m360 -27 c0 -19 -3 -24 -10 -17 -6 6 -8
18 -4 27 9 24 14 21 14 -10z m-464 2 c16 -12 16 -14 3 -15 -9 0 -22 7 -29 15
-16 19 0 19 26 0z m90 -6 c9 -16 -12 -33 -31 -25 -14 5 -15 9 -5 21 15 18 26
19 36 4z m760 -19 c8 0 20 -5 27 -10 7 -6 21 -18 32 -26 19 -15 19 -15 -5 -9
-55 14 -71 13 -83 -6 -6 -10 -16 -19 -21 -19 -5 0 1 11 13 24 16 17 21 31 17
48 -3 12 -3 17 0 11 3 -7 12 -13 20 -13z m-527 -46 c1 -11 -9 -29 -21 -40
l-21 -19 17 27 c12 19 16 38 12 60 -5 25 -4 28 3 13 5 -11 10 -29 10 -41z
m395 -7 c-44 -27 -47 -28 -63 -11 -15 17 -15 17 1 5 15 -11 22 -9 48 9 16 12
30 28 30 37 0 13 3 13 16 3 13 -12 9 -17 -32 -43z m-649 13 c3 -6 -1 -7 -9 -4
-18 7 -21 14 -7 14 6 0 13 -4 16 -10z m45 -24 c0 -3 -4 -8 -10 -11 -5 -3 -10
-1 -10 4 0 6 5 11 10 11 6 0 10 -2 10 -4z m360 -35 c0 -10 -7 -32 -16 -47 -15
-28 -15 -28 -12 -4 1 14 -1 31 -5 38 -10 15 0 32 19 32 8 0 14 -8 14 -19z
m-320 5 c0 -11 -19 -15 -25 -6 -3 5 1 10 9 10 9 0 16 -2 16 -4z m570 -36 c0
-5 -2 -10 -4 -10 -3 0 -8 5 -11 10 -3 6 -1 10 4 10 6 0 11 -4 11 -10z m-470
-10 c12 -8 11 -10 -7 -10 -12 0 -25 5 -28 10 -8 13 15 13 35 0z m40 -20 c0 -5
-4 -10 -10 -10 -5 0 -10 5 -10 10 0 6 5 10 10 10 6 0 10 -4 10 -10z m340 0 c0
-5 -5 -10 -11 -10 -5 0 -7 5 -4 10 3 6 8 10 11 10 2 0 4 -4 4 -10z m-60 -14
c0 -11 -19 -15 -25 -6 -3 5 1 10 9 10 9 0 16 -2 16 -4z m-170 -16 c0 -5 -4
-10 -10 -10 -5 0 -10 5 -10 10 0 6 5 10 10 10 6 0 10 -4 10 -10z m40 -10 c0
-5 -7 -10 -15 -10 -8 0 -15 5 -15 10 0 6 7 10 15 10 8 0 15 -4 15 -10z"/>
<path d="M530 736 c0 -2 8 -10 18 -17 15 -13 16 -12 3 4 -13 16 -21 21 -21 13z"/>
</g>
</svg>
